<mxfile host="app.diagrams.net" modified="2024-03-12T06:44:51.911Z" agent="Mozilla/5.0 (Windows NT 10.0; Win64; x64) AppleWebKit/537.36 (KHTML, like Gecko) Chrome/122.0.0.0 Safari/537.36" etag="97AREGBJByzfgBMqg1hQ" version="24.0.5" type="github">
  <diagram name="第 1 页" id="4nW0eJefp1mP9lbC_b0L">
    <mxGraphModel dx="1434" dy="772" grid="1" gridSize="10" guides="1" tooltips="1" connect="1" arrows="1" fold="1" page="1" pageScale="1" pageWidth="827" pageHeight="1169" math="0" shadow="0">
      <root>
        <mxCell id="0" />
        <mxCell id="1" parent="0" />
        <mxCell id="bhPOlL7AVQVIi7hH4OVE-1" value="" style="group" vertex="1" connectable="0" parent="1">
          <mxGeometry x="263" y="190" width="20" height="20" as="geometry" />
        </mxCell>
        <mxCell id="bhPOlL7AVQVIi7hH4OVE-2" value="" style="ellipse;whiteSpace=wrap;html=1;aspect=fixed;strokeWidth=2;" vertex="1" parent="bhPOlL7AVQVIi7hH4OVE-1">
          <mxGeometry width="20" height="20" as="geometry" />
        </mxCell>
        <mxCell id="bhPOlL7AVQVIi7hH4OVE-3" style="edgeStyle=orthogonalEdgeStyle;orthogonalLoop=1;jettySize=auto;html=1;exitX=0.122;exitY=0.797;exitDx=0;exitDy=0;entryX=1;entryY=0;entryDx=0;entryDy=0;curved=1;endArrow=none;endFill=0;strokeWidth=2;rounded=0;exitPerimeter=0;" edge="1" parent="bhPOlL7AVQVIi7hH4OVE-1" source="bhPOlL7AVQVIi7hH4OVE-2" target="bhPOlL7AVQVIi7hH4OVE-2">
          <mxGeometry relative="1" as="geometry">
            <Array as="points">
              <mxPoint x="10" y="16" />
              <mxPoint x="10" y="3" />
              <mxPoint x="17" y="3" />
            </Array>
          </mxGeometry>
        </mxCell>
        <mxCell id="bhPOlL7AVQVIi7hH4OVE-4" value="&lt;b&gt;C&lt;/b&gt;" style="ellipse;whiteSpace=wrap;html=1;aspect=fixed;strokeWidth=2;" vertex="1" parent="1">
          <mxGeometry x="414" y="200" width="20" height="20" as="geometry" />
        </mxCell>
        <mxCell id="bhPOlL7AVQVIi7hH4OVE-5" value="" style="group" vertex="1" connectable="0" parent="1">
          <mxGeometry x="540" y="180" width="30" height="30" as="geometry" />
        </mxCell>
        <mxCell id="bhPOlL7AVQVIi7hH4OVE-6" value="" style="ellipse;whiteSpace=wrap;html=1;aspect=fixed;strokeWidth=2;" vertex="1" parent="bhPOlL7AVQVIi7hH4OVE-5">
          <mxGeometry width="30" height="30" as="geometry" />
        </mxCell>
        <mxCell id="bhPOlL7AVQVIi7hH4OVE-7" style="edgeStyle=orthogonalEdgeStyle;orthogonalLoop=1;jettySize=auto;html=1;exitX=0;exitY=1;exitDx=0;exitDy=0;entryX=1;entryY=0;entryDx=0;entryDy=0;curved=1;endArrow=none;endFill=0;strokeWidth=2;rounded=0;" edge="1" parent="bhPOlL7AVQVIi7hH4OVE-5" source="bhPOlL7AVQVIi7hH4OVE-6" target="bhPOlL7AVQVIi7hH4OVE-6">
          <mxGeometry relative="1" as="geometry">
            <Array as="points">
              <mxPoint x="15" y="26" />
              <mxPoint x="15" y="4" />
            </Array>
          </mxGeometry>
        </mxCell>
      </root>
    </mxGraphModel>
  </diagram>
</mxfile>
